# xmcd
#
# Track frame offsets:
#	150
#	10920
#	25632
#	38987
#	48327
#	64587
#	76057
#	90142
#	101070
#	117257
#	128615
#	142620
#	152465
#
# Disc length: 2121 seconds
#
# Revision: 1
# Processed by: cddbd v1.5.2PL0 Copyright (c) Steve Scherf et al.
# Submitted via: audiograbber 1.83.01
#
DISCID=8708470d
DTITLE=Mickey Harris - Kneel and Pray
DYEAR=2006
DGENRE=Bluegrass Gospel
TTITLE0=Kneel and Pray
TTITLE1=Gates of Glory
TTITLE2=I Don't Want My Golden Slippers
TTITLE3=Peace of God
TTITLE4=Oh Mom
TTITLE5=A Beatiful Life
TTITLE6=Master's Call
TTITLE7=When I Wake Up to Sleep No More
TTITLE8=Lord I Hope This Day Is Good
TTITLE9=They Called it a Church
TTITLE10=The Great Speckled Bird
TTITLE11=I'm Going Home
TTITLE12=Just a Little Talk With Jesus
EXTD=
EXTT0=
EXTT1=
EXTT2=
EXTT3=
EXTT4=
EXTT5=
EXTT6=
EXTT7=
EXTT8=
EXTT9=
EXTT10=
EXTT11=
EXTT12=
PLAYORDER=
